# xmcd
#
# Track frame offsets:
#	150
#	15627
#	29005
#	44679
#	59823
#	87694
#	107275
#	128730
#	147246
#	171460
#	187168
#	198133
#	211598
#	228469
#	242854
#	262937
#	278109
#	290003
#	307742
#
# Disc length: 4232 seconds
#
# Revision: 1
# Processed by: cddbd v1.5.2PL0 Copyright (c) Steve Scherf et al.
# Submitted via: audiograbber 1.83.01
#
DISCID=1e108613
DTITLE=Idel - Live At Satorysaal Köln
DYEAR=1981
DGENRE=Deutschrock
TTITLE0=Intro
TTITLE1=Schweine
TTITLE2=Telephon
TTITLE3=Rote Liebe
TTITLE4=Telepathie
TTITLE5=Acryl
TTITLE6=Feuerzeug
TTITLE7=Spannung
TTITLE8=Monotonie
TTITLE9=Erschiessen
TTITLE10=Hundsgemein
TTITLE11=Eiszeit
TTITLE12=Irre
TTITLE13=Luxus
TTITLE14=Da Leg Ich Doch Lieber Wieder Hin
TTITLE15=Berlin
TTITLE16=Immer Frei
TTITLE17=Blaue Augen
TTITLE18=Männer Gibt´s Wie Sand Am Meer
EXTD=
EXTT0=
EXTT1=
EXTT2=
EXTT3=
EXTT4=
EXTT5=
EXTT6=
EXTT7=
EXTT8=
EXTT9=
EXTT10=
EXTT11=
EXTT12=
EXTT13=
EXTT14=
EXTT15=
EXTT16=
EXTT17=
EXTT18=
PLAYORDER=
